<svg height="464pt" viewBox="-24 0 464 464" width="464pt" xmlns="http://www.w3.org/2000/svg"><path d="m416 456v-424c0-4.417969-3.582031-8-8-8h-72c0-13.253906-10.746094-24-24-24s-24 10.746094-24 24h-176c0-13.253906-10.746094-24-24-24s-24 10.746094-24 24h-24c-13.253906 0-24 10.746094-24 24v312.207031c-10.066406 7.46875-16 19.261719-16 31.792969s5.933594 24.324219 16 31.792969v32.207031c0 4.417969 3.582031 8 8 8h384c4.417969 0 8-3.582031 8-8zm-16-376h-16v-40h16zm-96-56c0-4.417969 3.582031-8 8-8s8 3.582031 8 8v24h-16zm-224 0c0-4.417969 3.582031-8 8-8s8 3.582031 8 8v24h-16zm-48 24c0-4.417969 3.582031-8 8-8h24v8h-16v16h80v-16h-16v-8h176v8h-16v16h80v-16h-16v-8h32v40h-336zm0 48h336v296c0 13.253906-10.746094 24-24 24s-24-10.746094-24-24 10.746094-24 24-24c4.417969 0 8-3.582031 8-8s-3.582031-8-8-8h-304c-2.6875-.003906-5.367188.265625-8 .800781zm8 272h272c-10.6875 14.214844-10.6875 33.785156 0 48h-272c-13.253906 0-24-10.746094-24-24s10.746094-24 24-24zm360 80h-368v-16h312c22.082031-.027344 39.972656-17.917969 40-40v-296h16zm0 0"/><path d="m72 272h24v8c0 4.417969 3.582031 8 8 8h32c4.417969 0 8-3.582031 8-8v-40h112v40c0 4.417969 3.582031 8 8 8h32c4.417969 0 8-3.582031 8-8v-8h24c4.417969 0 8-3.582031 8-8v-112c0-4.417969-3.582031-8-8-8h-24v-8c0-4.417969-3.582031-8-8-8h-32c-4.417969 0-8 3.582031-8 8v40h-112v-40c0-4.417969-3.582031-8-8-8h-32c-4.417969 0-8 3.582031-8 8v8h-24c-4.417969 0-8 3.582031-8 8v112c0 4.417969 3.582031 8 8 8zm248-112v96h-16v-96zm-48-16h16v128h-16zm-16 80h-16v-32h16zm-32-32v32h-48v-32zm-64 0v32h-16v-32zm-48-48h16v128h-16zm-32 16h16v96h-16zm0 0"/><path d="m192 304h16v16h-16zm0 0"/><path d="m224 304h16v16h-16zm0 0"/><path d="m160 304h16v16h-16zm0 0"/></svg>