<svg height="480pt" viewBox="0 -124 480 480" width="480pt" xmlns="http://www.w3.org/2000/svg"><path d="m472 88h-24v-40c0-13.253906-10.746094-24-24-24h-16c-2.957031.015625-5.886719.582031-8.640625 1.671875-3.023437-14.921875-16.132813-25.6523438-31.359375-25.671875h-16c-17.671875 0-32 14.328125-32 32v48h-24c-4.417969 0-8 3.582031-8 8h-96c0-4.417969-3.582031-8-8-8h-24v-48c0-17.671875-14.328125-32-32-32h-16c-15.226562.0195312-28.335938 10.75-31.359375 25.671875-2.753906-1.089844-5.683594-1.65625-8.640625-1.671875h-16c-13.253906 0-24 10.746094-24 24v40h-24c-4.417969 0-8 3.582031-8 8v48c0 4.417969 3.582031 8 8 8h24v32c0 13.253906 10.746094 24 24 24h16c2.957031-.015625 5.886719-.582031 8.640625-1.671875 3.023437 14.921875 16.132813 25.652344 31.359375 25.671875h16c17.671875 0 32-14.328125 32-32v-40h24c4.417969 0 8-3.582031 8-8h96c0 4.417969 3.582031 8 8 8h24v40c0 17.671875 14.328125 32 32 32h16c15.226562-.019531 28.335938-10.75 31.359375-25.671875 2.753906 1.089844 5.683594 1.65625 8.640625 1.671875h16c13.253906 0 24-10.746094 24-24v-32h24c4.417969 0 8-3.582031 8-8v-48c0-4.417969-3.582031-8-8-8zm-252.527344 48 20-32h21.136719l-20 32zm-203.472656 0v-32h16v32zm56 56h-16c-4.417969 0-8-3.582031-8-8v-136c0-4.417969 3.582031-8 8-8h16c4.417969 0 8 3.582031 8 8v136c0 4.417969-3.582031 8-8 8zm72 8c0 8.835938-7.164062 16-16 16h-16c-8.835938 0-16-7.164062-16-16v-168c0-8.835938 7.164062-16 16-16h16c8.835938 0 16 7.164062 16 16zm16-56v-48h16v48zm32-40h28.609375l-20 32h-8.609375zm67.472656 32 20-32h8.527344v32zm44.527344 8v-48h16v48zm80 56c0 8.835938-7.164062 16-16 16h-16c-8.835938 0-16-7.164062-16-16v-168c0-8.835938 7.164062-16 16-16h16c8.835938 0 16 7.164062 16 16zm48-16c0 4.417969-3.582031 8-8 8h-16c-4.417969 0-8-3.582031-8-8v-136c0-4.417969 3.582031-8 8-8h16c4.417969 0 8 3.582031 8 8zm32-48h-16v-32h16zm0 0"/><path d="m120 32c-4.417969 0-8 3.582031-8 8v8c0 4.417969 3.582031 8 8 8s8-3.582031 8-8v-8c0-4.417969-3.582031-8-8-8zm0 0"/><path d="m120 88c-4.417969 0-8 3.582031-8 8v40c0 4.417969 3.582031 8 8 8s8-3.582031 8-8v-40c0-4.417969-3.582031-8-8-8zm0 0"/><path d="m360 32c-4.417969 0-8 3.582031-8 8v8c0 4.417969 3.582031 8 8 8s8-3.582031 8-8v-8c0-4.417969-3.582031-8-8-8zm0 0"/><path d="m360 88c-4.417969 0-8 3.582031-8 8v40c0 4.417969 3.582031 8 8 8s8-3.582031 8-8v-40c0-4.417969-3.582031-8-8-8zm0 0"/></svg>