<svg height="480pt" viewBox="0 0 480 480.02508" width="480pt" xmlns="http://www.w3.org/2000/svg"><path d="m244.4375 328.839844c-7.824219 3.894531-17.023438 3.894531-24.847656 0-3.957032-1.976563-8.761719-.371094-10.738282 3.585937-1.972656 3.953125-.371093 8.757813 3.585938 10.734375 12.332031 6.125 26.820312 6.125 39.152344 0 3.953125-1.976562 5.558594-6.78125 3.582031-10.734375-1.972656-3.957031-6.78125-5.5625-10.734375-3.585937zm0 0"/><path d="m48.011719 216.800781c0-4.417969-3.582031-8-8-8s-8 3.582031-8 8c.019531 11.917969 4.074219 23.480469 11.503906 32.800781 8 10.054688 10.160156 23.566407 5.6875 35.613282-1.433594 4.109375.679687 8.609375 4.753906 10.132812 4.074219 1.523438 8.621094-.488281 10.230469-4.53125 6.441406-17.332031 3.339844-36.769531-8.175781-51.230468-5.164063-6.476563-7.984375-14.503907-8-22.785157zm0 0"/><path d="m45.859375 312.535156c-4.121094-1.582031-8.746094.472656-10.335937 4.59375-2.328126 6.019532-3.519532 12.417969-3.511719 18.871094 0 4.417969 3.582031 8 8 8s8-3.582031 8-8c-.011719-4.488281.800781-8.9375 2.402343-13.128906 1.585938-4.109375-.449218-8.730469-4.554687-10.335938zm0 0"/><path d="m40.011719 192c4.417969 0 8-3.582031 8-8v-16c0-4.417969-3.582031-8-8-8s-8 3.582031-8 8v16c0 4.417969 3.582031 8 8 8zm0 0"/><path d="m472.011719 376h-16v-56c-.035157-3.898438-2.90625-7.191406-6.765625-7.753906l11.382812-18.964844c.460938-.8125.777344-1.703125.925782-2.625 0-.121094.113281-.230469.128906-.359375.027344-.507813.003906-1.019531-.070313-1.519531.027344-.535156 0-1.074219-.082031-1.601563-.515625-2.058593-1.828125-3.828125-3.648438-4.917969l-43.894531-26.296874-24.695312-14.816407c-1.539063-.984375-3.398438-1.324219-5.183594-.953125-.292969 0-.589844.015625-.878906.046875h-.019531c-2.054688.519531-3.824219 1.835938-4.910157 3.65625l-40.878906 68.105469h-4.449219c-4.191406-18.277344-17.984375-32.835938-36.011718-38.003906-18.027344-5.167969-37.4375-.132813-50.675782 13.148437l-2.289062 2.289063c-2.644532 2.636718-5.8125 4.699218-9.296875 6.054687-.636719-9.402343.664062-18.832031 3.816406-27.710937.667969-.957032 1.113281-2.050782 1.304687-3.203125 2.167969-5.347657 5.003907-10.402344 8.441407-15.039063l14.152343-18.871094c2.648438-3.535156 1.933594-8.550781-1.601562-11.199218-3.535156-2.652344-8.550781-1.933594-11.199219 1.597656l-14.152343 18.867188c-.382813.511718-.695313 1.070312-1.0625 1.597656l-3.203126-11.785156c-1.613281-5.78125-4.035156-11.304688-7.199218-16.40625v-109.335938c-.027344-22.082031-17.917969-39.972656-40-40h-47.984375v-16h8c4.417969 0 8-3.582031 8-8v-16c0-13.253906-10.746094-24-24-24h-32c-13.253907 0-24 10.746094-24 24v16c0 4.417969 3.582031 8 8 8h8v16h-48c-22.078125.027344-39.9726565 17.917969-40.0000002 40v112.398438c0 11.902343 4.0546872 23.449218 11.4960932 32.738281 5.167969 6.503906 7.992188 14.558593 8.023438 22.863281-.035156 8.289062-2.851562 16.328125-8 22.824219-7.457031 9.296875-11.5234375 20.859375-11.5195312 32.777343v112.398438c.0273437 22.082031 17.9218752 39.972656 40.0000002 40h145.058593c.828126-.003906 1.65625-.054688 2.476563-.144531 11.476563-.734375 22.066406-6.429688 29-15.597657l1.792969-2.402343c1.566406-1.925781 3.917968-3.042969 6.402344-3.042969 2.480468 0 4.832031 1.117188 6.398437 3.042969l1.792969 2.402343c9.773437 13.175782 26.746094 18.828126 42.472656 14.140626 1.324219 1.011718 2.9375 1.570312 4.605469 1.601562h160c22.082031-.027344 39.972656-17.917969 40-40v-56c0-4.417969-3.582031-8-8-8zm-138.613281 0c2.515624-15.871094 3.097656-31.988281 1.726562-48h8.886719v16h16v-16h16v32h16v-32h16v16h16v-16h16v48zm54.511718-117.015625 15.671875 9.390625 39.199219 23.519531-8.25 13.707031-54.847656-32.90625zm-16.472656 27.414063 42.65625 25.601562h-58.015625zm-152.695312 10.265624c-4.679688-1.054687-8.992188-3.335937-12.496094-6.609374-4.371094-9.085938-4.75-19.585938-1.050782-28.964844l16.648438 6.652344c-2.683594 9.390624-3.734375 19.175781-3.101562 28.921874zm-3-62.710937 4.328124 15.847656-19.371093-7.753906c-12.183594-4.890625-21.84375-14.546875-26.734375-26.734375l-7.753906-19.367188 15.847656 4.328126c16.382812 4.5 29.179687 17.296874 33.683594 33.679687zm-127.730469-209.953125c0-4.417969 3.582031-8 8-8h32c4.417969 0 8 3.582031 8 8v8h-48zm16 24h16v16h-16zm-88 56c0-13.253906 10.746093-24 24-24h144c13.253906 0 24 10.746094 24 24v24h-192zm0 336v-112.398438c-.011719-8.292968 2.8125-16.335937 8-22.800781 7.417969-9.328125 11.476562-20.882812 11.519531-32.800781-.03125-11.9375-4.089844-23.511719-11.519531-32.855469-5.179688-6.449219-8-14.472656-8-22.746093v-72.398438h192v51.601562c-6.484375-4.960937-13.863281-8.625-21.734375-10.800781l-31.351563-8.554687c-2.929687-.800782-6.0625.125-8.085937 2.394531-2.019532 2.265625-2.582032 5.484375-1.453125 8.304687l13.714843 34.277344c5.9375 14.710938 17.109376 26.703125 31.359376 33.671875-2.679688 6.714844-3.945313 13.910157-3.710938 21.136719-14.773438-6.230469-31.601562-5.257812-45.558594 2.636719-13.953125 7.894531-23.460937 21.8125-25.730468 37.683593-7.195313 49.871094 4.921874 100.601563 33.871093 141.839844l3.488281 4.992188c.191407.28125.425782.511718.625.800781h-113.433593c-13.246094 0-23.992188-10.734375-24-23.984375zm229.722656 14.664062-1.792969-2.398437c-4.535156-6.046875-11.648437-9.601563-19.199218-9.601563-7.554688 0-14.667969 3.554688-19.203126 9.601563l-1.78125 2.398437c-4.425781 5.863282-11.34375 9.320313-18.6875 9.335938-7.621093-.003906-14.757812-3.71875-19.128906-9.960938l-3.496094-4.992187c-26.613281-37.910156-37.75-84.554687-31.136718-130.398437 2.582031-17.542969 17.59375-30.570313 35.328125-30.648438 9.476562-.023438 18.566406 3.742188 25.246093 10.464844l2.019532 2.015625.070312.0625.199219.199219c16.890625 16.863281 44.246094 16.863281 61.136719 0l2.289062-2.285157c6.679688-6.71875 15.773438-10.484375 25.246094-10.457031 17.738281.078125 32.757812 13.105469 35.335938 30.65625 4.828124 33.59375.148437 67.871094-13.503907 98.945312l-.046875.109376c-4.824218 11.011718-10.71875 21.523437-17.601562 31.378906l-3.496094 4.988281c-4.289062 6.132813-11.261719 9.835937-18.742188 9.957031-7.484374.125-14.574218-3.34375-19.066406-9.332031zm50.277344 9.335938c.199219-.273438.433593-.511719.625-.800781l3.496093-4.992188c1.382813-1.992187 2.550782-4.085937 3.863282-6.117187v11.910156zm168-24c0 13.253906-10.746094 24-24 24h-120v-41.769531c4.214843-9.78125 7.625-19.894531 10.199219-30.230469h5.800781v32h16v-32h16v16h16v-16h16v32h16v-32h16v16h16v-16h16zm0 0"/><path d="m360.011719 208c57.4375 0 104-46.5625 104-104s-46.5625-104-104-104-104 46.5625-104 104c.066406 57.410156 46.589843 103.933594 104 104zm0-192c48.601562 0 88 39.398438 88 88s-39.398438 88-88 88c-48.601563 0-88-39.398438-88-88 .058593-48.578125 39.421875-87.941406 88-88zm0 0"/><path d="m308.078125 83-14.824219-6c-2.339844 5.773438-3.914062 11.828125-4.679687 18.007812l15.871093 1.984376c.597657-4.800782 1.820313-9.503907 3.632813-13.992188zm0 0"/><path d="m333.011719 170.761719 6-14.824219c-16.445313-6.691406-28.765625-20.75-33.238281-37.929688l-15.488282 4c5.742188 22.085938 21.585938 40.160157 42.726563 48.753907zm0 0"/><path d="m402.890625 150.144531c2.1875 1.910157 5.238281 2.488281 7.972656 1.507813 2.730469-.980469 4.71875-3.363282 5.191407-6.230469.472656-2.863281-.648438-5.761719-2.921876-7.566406l-45.121093-37.597657v-44.257812c0-4.417969-3.582031-8-8-8s-8 3.582031-8 8v48c0 2.375 1.058593 4.625 2.878906 6.144531zm0 0"/><path d="m280.011719 240h16v16h-16zm0 0"/><path d="m280.011719 208h16v16h-16zm0 0"/><path d="m312.011719 240h16v16h-16zm0 0"/><path d="m432.011719 200h16v16h-16zm0 0"/><path d="m432.011719 232h16v16h-16zm0 0"/><path d="m464.011719 168h16v16h-16zm0 0"/><path d="m464.011719 200h16v16h-16zm0 0"/><path d="m464.011719 232h16v16h-16zm0 0"/><path d="m144.011719 96h48v16h-48zm0 0"/><path d="m112.011719 96h16v16h-16zm0 0"/></svg>