<svg height="480pt" viewBox="-40 0 480 480.00059" width="480pt" xmlns="http://www.w3.org/2000/svg"><path d="m376 392h-107.367188l10.925782-192h.441406c13.253906 0 24-10.746094 24-24v-32c0-13.253906-10.746094-24-24-24h-8v-96c0-13.253906-10.746094-24-24-24h-32c-10.132812.0429688-19.148438 6.445312-22.527344 16h-121.472656c-17.671875 0-32 14.328125-32 32v45.359375c-4.074219 8.367187-6.644531 17.382813-7.589844 26.640625h-8.410156c-13.253906 0-24 10.746094-24 24v32c0 13.253906 10.746094 24 24 24h.65625l22.097656 258.046875c1.023438 12.46875 11.488282 22.042969 24 21.953125h153.246094c22.082031-.027344 39.972656-17.917969 40-40h112c13.253906 0 24-10.746094 24-24s-10.746094-24-24-24zm-184-352v8h-80c-2.671875.003906-5.339844.136719-8 .40625v-.40625c-.03125-5.632812-1.5625-11.15625-4.441406-16h92.441406zm16 8h48v32.199219c-11.707031-15.738281-28.789062-26.628907-48-30.597657zm0-24c0-4.417969 3.582031-8 8-8h32c4.417969 0 8 3.582031 8 8v8h-48zm-136 8c8.835938 0 16 7.164062 16 16v3.6875c-12.039062 3.8125-23.003906 10.417969-32 19.28125v-22.96875c0-8.835938 7.164062-16 16-16zm40 32h80c32.238281.042969 59.429688 24.019531 63.503906 56h-207.007812c4.074218-31.980469 31.265625-55.957031 63.503906-56zm-96 112v-32c0-4.417969 3.582031-8 8-8h256c4.417969 0 8 3.582031 8 8v32c0 4.417969-3.582031 8-8 8h-256c-4.417969 0-8-3.582031-8-8zm247.535156 24-1.824218 32h-157.710938v-16h-16v16h-44.550781l-2.746094-32zm-200.847656 256.671875-17.886719-208.671875h43.199219v168h32v-16h-16v-32h32v-16h-32v-32h16v-16h-16v-32h32v-16h-32v-8h156.800781l-7.746093 136h-.796876l-18.976562-28.496094c-7.417969-11.125-19.90625-17.808594-33.28125-17.808594-13.371094 0-25.859375 6.683594-33.28125 17.808594l-19 28.496094h-3.71875c-4.417969 0-8 3.582031-8 8v48c.03125 8.683594 2.914062 17.117188 8.207031 24h-73.488281c-4.179688.03125-7.679688-3.160156-8.03125-7.328125zm170.359375-72.671875h-66.09375l13.046875-19.625c4.453125-6.675781 11.945312-10.683594 19.96875-10.683594s15.515625 4.007813 19.96875 10.683594zm14.953125 56c0 13.253906-10.746094 24-24 24h-48c-13.253906 0-24-10.746094-24-24v-40h96zm128-16h-112v-16h112c4.417969 0 8 3.582031 8 8s-3.582031 8-8 8zm0 0"/></svg>