<svg height="472pt" viewBox="-68 0 472 472.01478" width="472pt" xmlns="http://www.w3.org/2000/svg"><path d="m335.769531 264c-.039062-19.089844-13.550781-35.5-32.277343-39.199219-1.296876-30.394531-11.414063-59.753906-29.113282-84.496093l-12.105468-16.9375c-1.496094-2.105469-3.917969-3.359376-6.503907-3.367188h-48v-40h112c4.417969 0 8-3.582031 8-8v-64c0-4.417969-3.582031-8-8-8h-136c-30.910156.0390625-55.957031 25.089844-56 56v64h-48c-2.582031.003906-5.003906 1.25-6.503906 3.351562l-12.101563 16.9375c-17.703124 24.746094-27.820312 54.109376-29.113281 84.511719-20.089843 4.078125-33.84375 22.679688-31.855469 43.082031 1.988282 20.398438 19.078126 35.996094 39.574219 36.117188h256c22.082031-.027344 39.976563-17.917969 40-40zm-192-208c.027344-22.082031 17.921875-39.972656 40-40h128v48h-112c-4.417969 0-8 3.582031-8 8v48h-48zm-69.597656 93.601562 9.71875-13.601562h167.761719l9.71875 13.601562c15.628906 21.800782 24.710937 47.613282 26.183594 74.398438h-239.566407c1.472657-26.785156 10.554688-52.597656 26.183594-74.398438zm221.597656 138.398438h-256c-13.253906 0-24-10.746094-24-24s10.746094-24 24-24h256c13.257813 0 24 10.746094 24 24s-10.742187 24-24 24zm0 0"/><path d="m148.089844 349.328125-15.261719-25.449219c-1.554687-2.257812-4.121094-3.605468-6.859375-3.605468-2.742188 0-5.308594 1.347656-6.863281 3.605468l-15.261719 25.449219c-6.5 10.828125-4.199219 24.773437 5.429688 32.945313 9.628906 8.171874 23.757812 8.171874 33.386718 0 9.628906-8.171876 11.929688-22.117188 5.429688-32.945313zm-16.695313 21.433594c-3.8125 2.535156-8.878906 2.089843-12.191406-1.070313-3.316406-3.164062-3.996094-8.203125-1.640625-12.132812l8.402344-14.015625 8.40625 14.058593c2.675781 4.476563 1.367187 10.265626-2.976563 13.160157zm0 0"/><path d="m140.273438 467.664062c11.484374-7.625 14.929687-22.9375 7.816406-34.742187l-15.261719-25.441406c-1.554687-2.261719-4.117187-3.613281-6.859375-3.613281s-5.308594 1.351562-6.863281 3.613281l-15.261719 25.441406c-6.230469 10.34375-4.445312 23.628906 4.296875 31.964844 8.738281 8.335937 22.09375 9.492187 32.132813 2.777343zm-22.710938-26.503906 8.402344-14.015625 8.40625 14.015625c2.472656 4.113282 1.601562 9.410156-2.058594 12.519532-3.65625 3.105468-9.027344 3.105468-12.683594 0-3.660156-3.109376-4.53125-8.40625-2.058594-12.519532zm0 0"/><path d="m29.84375 384.070312c10.039062 6.703126 23.386719 5.546876 32.125-2.785156 8.738281-8.332031 10.53125-21.609375 4.3125-31.957031l-15.261719-25.449219c-1.554687-2.257812-4.121093-3.605468-6.859375-3.605468-2.742187 0-5.308594 1.347656-6.859375 3.605468l-15.265625 25.449219c-7.105468 11.804687-3.664062 27.113281 7.808594 34.742187zm5.925781-26.46875 8.410157-14.015624 8.390624 14.015624c2.480469 4.113282 1.613282 9.421876-2.046874 12.535157-3.664063 3.113281-9.042969 3.113281-12.703126 0-3.664062-3.113281-4.53125-8.421875-2.050781-12.535157zm0 0"/><path d="m29.84375 467.664062c10.039062 6.703126 23.386719 5.546876 32.125-2.785156 8.738281-8.332031 10.53125-21.609375 4.3125-31.957031l-15.261719-25.441406c-1.550781-2.261719-4.117187-3.613281-6.859375-3.613281-2.742187 0-5.308594 1.351562-6.859375 3.613281l-15.265625 25.441406c-7.105468 11.804687-3.664062 27.113281 7.808594 34.742187zm5.910156-26.503906 8.410156-14.015625 8.40625 14.015625c2.472657 4.113282 1.601563 9.410156-2.054687 12.519532-3.660156 3.105468-9.03125 3.105468-12.6875 0-3.660156-3.109376-4.527344-8.40625-2.058594-12.519532zm0 0"/><path d="m313.507812 349.328125-15.265624-25.449219c-1.554688-2.257812-4.117188-3.605468-6.859376-3.605468-2.742187 0-5.304687 1.347656-6.859374 3.605468l-15.265626 25.449219c-6.496093 10.828125-4.199218 24.773437 5.429688 32.945313 9.628906 8.171874 23.761719 8.171874 33.390625 0 9.628906-8.171876 11.925781-22.117188 5.429687-32.945313zm-16.695312 21.433594c-3.808594 2.511719-8.847656 2.066406-12.15625-1.078125-3.304688-3.144532-4.003906-8.152344-1.683594-12.082032l8.40625-14.015624 8.390625 14.015624c2.679688 4.472657 1.378907 10.261719-2.957031 13.160157zm0 0"/><path d="m284.523438 407.480469-15.265626 25.441406c-6.496093 10.828125-4.199218 24.769531 5.429688 32.941406s23.761719 8.171875 33.390625 0 11.925781-22.113281 5.429687-32.941406l-15.265624-25.441406c-1.550782-2.261719-4.117188-3.613281-6.859376-3.613281-2.742187 0-5.308593 1.351562-6.859374 3.613281zm12.289062 46.871093c-3.816406 2.539063-8.878906 2.097657-12.195312-1.0625-3.316407-3.160156-4-8.199218-1.644532-12.128906l8.40625-14.015625 8.390625 14.015625c2.707031 4.480469 1.402344 10.296875-2.957031 13.191406zm0 0"/><path d="m231.699219 349.328125-15.265625-25.449219c-1.550782-2.257812-4.117188-3.605468-6.859375-3.605468-2.738281 0-5.304688 1.347656-6.859375 3.605468l-15.265625 25.449219c-6.496094 10.828125-4.199219 24.773437 5.429687 32.945313 9.632813 8.171874 23.761719 8.171874 33.390625 0 9.628907-8.171876 11.925781-22.117188 5.429688-32.945313zm-16.726563 21.433594c-3.816406 2.535156-8.878906 2.089843-12.195312-1.070313-3.3125-3.164062-3.996094-8.203125-1.636719-12.132812l8.40625-14.015625 8.398437 14.015625c2.703126 4.488281 1.390626 10.308594-2.972656 13.203125zm0 0"/><path d="m202.714844 407.480469-15.265625 25.441406c-6.496094 10.828125-4.199219 24.769531 5.429687 32.941406 9.632813 8.171875 23.761719 8.171875 33.390625 0 9.628907-8.171875 11.925781-22.113281 5.429688-32.941406l-15.265625-25.441406c-1.550782-2.261719-4.117188-3.613281-6.859375-3.613281-2.742188 0-5.308594 1.351562-6.859375 3.613281zm12.257812 46.871093c-3.816406 2.53125-8.871094 2.085938-12.183594-1.074218-3.3125-3.15625-3.996093-8.1875-1.648437-12.117188l8.40625-14.015625 8.398437 14.015625c2.707032 4.484375 1.394532 10.304688-2.972656 13.191406zm0 0"/></svg>