<svg height="480pt" viewBox="-16 0 480 480.0026" width="480pt" xmlns="http://www.w3.org/2000/svg"><path d="m408 40.003906h-106.183594c-17.964844-25.109375-46.941406-40.003906-77.816406-40.003906-30.871094 0-59.847656 14.894531-77.816406 40.003906h-106.183594c-22.078125.023438-39.9726562 17.917969-40 40v360c.0273438 22.078125 17.921875 39.972656 40 40h368c22.082031-.027344 39.976562-17.921875 40-40v-360c-.023438-22.082031-17.917969-39.976562-40-40zm-392 96h416v256c0 13.253906-10.742188 24-24 24h-368c-13.253906 0-24-10.746094-24-24zm208-120c41.066406.050782 75.441406 31.144532 79.601562 72h-32.320312c-1.929688-11.421875-7.925781-21.757812-16.878906-29.105468l8.550781-14.894532c2.1875-3.839844.847656-8.726562-2.992187-10.914062-3.839844-2.1875-8.722657-.847656-10.910157 2.992187l-8.539062 14.90625c-13.378907-4.964843-28.277344-3.691406-40.617188 3.472657-12.34375 7.160156-20.84375 19.460937-23.171875 33.542968h-32.320312c4.15625-40.855468 38.535156-71.949218 79.597656-72zm30.992188 72h-61.984376c3.636719-14.144531 16.390626-24.03125 30.992188-24.03125 14.605469 0 27.355469 9.886719 30.992188 24.03125zm-214.992188-32h96.839844c-5.808594 12.535156-8.824219 26.183594-8.839844 40 0 4.417969 3.582031 8 8 8h176c4.417969 0 8-3.582031 8-8 0-13.816406-3-27.464844-8.796875-40h96.796875c13.257812 0 24 10.742188 24 24v40h-416v-40c0-13.257812 10.746094-24 24-24zm368 408h-368c-13.253906 0-24-10.746094-24-24v-16.210937c6.882812 5.296875 15.316406 8.179687 24 8.210937h368c8.683594-.03125 17.117188-2.914062 24-8.210937v16.210937c0 13.253906-10.742188 24-24 24zm0 0"/><path d="m40 408.003906h24v-16h-16v-16h-16v24c0 4.417969 3.582031 8 8 8zm0 0"/><path d="m48 176.003906h16v-16h-24c-4.417969 0-8 3.582032-8 8v24h16zm0 0"/><path d="m400 192.003906h16v-24c0-4.417968-3.582031-8-8-8h-24v16h16zm0 0"/><path d="m216 152.003906h16v16h-16zm0 0"/><path d="m216 184.003906h16v16h-16zm0 0"/><path d="m216 216.003906h16v16h-16zm0 0"/><path d="m216 248.003906h16v16h-16zm0 0"/><path d="m216 280.003906h16v16h-16zm0 0"/><path d="m216 312.003906h16v16h-16zm0 0"/><path d="m216 344.003906h16v16h-16zm0 0"/><path d="m216 376.003906h16v16h-16zm0 0"/><path d="m384 400.003906h24c4.417969 0 8-3.582031 8-8v-24h-16v16h-16c-4.417969 0-8 3.582032-8 8 0 4.417969 3.582031 8 8 8zm0 0"/><path d="m116 384.003906c24.289062-.027344 43.976562-19.710937 44-44v-34.707031c-.003906-15.894531 2.558594-31.6875 7.59375-46.765625l4.207031-12.617188c2.78125-8.355468 4.203125-17.105468 4.199219-25.910156 0-28.71875-23.28125-52-52-52s-52 23.28125-52 52v120c.027344 24.289063 19.710938 43.972656 44 44zm-28-164c0-19.882812 16.117188-36 36-36s36 16.117188 36 36c.003906 7.085938-1.136719 14.125-3.382812 20.847656l-4.207032 12.621094c-5.574218 16.710938-8.410156 34.210938-8.410156 51.824219v34.707031c0 15.460938-12.535156 28-28 28-15.460938 0-28-12.539062-28-28zm0 0"/><path d="m280.410156 258.53125c5.03125 15.078125 7.597656 30.871094 7.589844 46.765625v34.707031c0 24.300782 19.699219 44 44 44s44-19.699218 44-44v-120c0-28.71875-23.28125-52-52-52s-52 23.28125-52 52c0 8.804688 1.417969 17.554688 4.203125 25.910156zm43.589844-74.527344c19.875.019532 35.980469 16.125 36 36v120c0 15.460938-12.535156 28-28 28-15.460938 0-28-12.539062-28-28v-34.707031c.003906-17.613281-2.835938-35.113281-8.40625-51.824219l-4.207031-12.613281c-2.246094-6.726563-3.390625-13.769531-3.386719-20.855469.023438-19.875 16.128906-35.980468 36-36zm0 0"/></svg>