<svg width="0" height="0" class="hidden">
  <symbol xmlns="http://www.w3.org/2000/svg" viewBox="0 0 512.001 512.001" id="barbell">
    <path d="M317.648 194.353c-3.91-3.9-10.24-3.9-14.14 0-3.91 3.91-3.91 10.24 0 14.139 3.9 3.91 10.23 3.91 14.14 0 3.9-3.9 3.9-10.229 0-14.139z"></path>
    <path d="M500.274 195.562l-14.14-14.139c.521-.762 15.859-13.252 15.859-36.564 0-13.358-5.204-25.914-14.651-35.355l-7.071-7.071 7.066-7.072c19.541-19.513 19.561-51.174.007-70.701-19.533-19.546-51.16-19.558-70.698-.006l-7.079 7.074-7.069-7.069c-19.535-19.549-51.171-19.556-70.713-.002l-1.209 1.209-14.138-14.138c-15.631-15.63-40.929-15.641-56.567-.003-15.635 15.623-15.643 40.935-.003 56.563l56.567 56.567-191.581 191.58-56.561-56.561c-15.605-15.63-40.945-15.653-56.563-.009-15.639 15.627-15.641 40.935-.002 56.575l14.138 14.138-1.206 1.206c-19.549 19.535-19.556 51.171-.002 70.713l7.071 7.071-7.066 7.072c-19.541 19.513-19.561 51.174-.007 70.702 19.533 19.544 51.158 19.559 70.7.005l7.079-7.074 7.069 7.069c19.535 19.549 51.171 19.557 70.713.002l1.208-1.208 14.138 14.139c15.632 15.631 40.931 15.64 56.568.003 15.635-15.623 15.643-40.935.003-56.563l-56.567-56.567 191.58-191.58 56.561 56.561c15.605 15.63 40.945 15.653 56.563.009 15.639-15.629 15.641-40.937.003-56.576zM430.788 38.797c11.691-11.7 30.658-11.763 42.418.007 11.72 11.703 11.733 30.689-.007 42.414l-7.068 7.074-42.422-42.422 7.079-7.073zm-84.858 0c11.72-11.728 30.697-11.735 42.424.002l84.849 84.849c11.728 11.72 11.735 30.697-.002 42.424l-1.208 1.209L344.719 40.008l1.211-1.211zM81.212 473.204c-11.691 11.7-30.658 11.763-42.418-.007-11.72-11.703-11.733-30.689.007-42.414l7.068-7.074 42.422 42.422-7.079 7.073zm84.858 0c-11.72 11.728-30.697 11.735-42.424-.002l-84.849-84.849c-11.728-11.72-11.735-30.697.002-42.424l1.208-1.209L167.28 471.993l-1.21 1.211zm71.922-15.346c7.816 7.807 7.822 20.457-.002 28.274-7.836 7.836-20.481 7.805-28.287 0L25.869 302.298c-7.753-7.753-7.886-20.407.006-28.293 7.779-7.792 20.443-7.835 28.27.006l183.847 183.847zm-56.569-84.855l-42.425-42.425 191.58-191.58 42.425 42.426-191.58 191.579zm304.702-135.007c-7.779 7.792-20.443 7.835-28.27-.006L274.008 54.144c-7.815-7.807-7.821-20.457.003-28.274 7.836-7.836 20.48-7.805 28.287 0l183.833 183.834c7.753 7.752 7.886 20.407-.006 28.292z"></path>
    <path d="M289.361 222.641c-3.906-3.906-10.238-3.906-14.143 0l-80.867 80.867c-3.905 3.905-3.905 10.237 0 14.143 3.905 3.905 10.237 3.905 14.142 0l80.867-80.867c3.906-3.906 3.906-10.237.001-14.143z"></path>
  </symbol>
  <symbol viewBox="-24 0 464 464" xmlns="http://www.w3.org/2000/svg" id="calendar">
    <path d="M416 456V32a8 8 0 0 0-8-8h-72c0-13.254-10.746-24-24-24s-24 10.746-24 24H112c0-13.254-10.746-24-24-24S64 10.746 64 24H40c-13.254 0-24 10.746-24 24v312.207a39.588 39.588 0 0 0 0 63.586V456a8 8 0 0 0 8 8h384a8 8 0 0 0 8-8zM400 80h-16V40h16zm-96-56a8 8 0 0 1 16 0v24h-16zM80 24a8 8 0 0 1 16 0v24H80zM32 48a8 8 0 0 1 8-8h24v8H48v16h80V48h-16v-8h176v8h-16v16h80V48h-16v-8h32v40H32zm0 48h336v296c0 13.254-10.746 24-24 24s-24-10.746-24-24 10.746-24 24-24a8 8 0 0 0 0-16H40a39.869 39.869 0 0 0-8 .8zm8 272h272c-10.688 14.215-10.688 33.785 0 48H40c-13.254 0-24-10.746-24-24s10.746-24 24-24zm360 80H32v-16h312c22.082-.027 39.973-17.918 40-40V96h16zm0 0"></path>
    <path d="M72 272h24v8a8 8 0 0 0 8 8h32a8 8 0 0 0 8-8v-40h112v40a8 8 0 0 0 8 8h32a8 8 0 0 0 8-8v-8h24a8 8 0 0 0 8-8V152a8 8 0 0 0-8-8h-24v-8a8 8 0 0 0-8-8h-32a8 8 0 0 0-8 8v40H144v-40a8 8 0 0 0-8-8h-32a8 8 0 0 0-8 8v8H72a8 8 0 0 0-8 8v112a8 8 0 0 0 8 8zm248-112v96h-16v-96zm-48-16h16v128h-16zm-16 80h-16v-32h16zm-32-32v32h-48v-32zm-64 0v32h-16v-32zm-48-48h16v128h-16zm-32 16h16v96H80zm112 144h16v16h-16zm32 0h16v16h-16zm-64 0h16v16h-16zm0 0"></path>
  </symbol>
  <symbol viewBox="0 -124 480 480" xmlns="http://www.w3.org/2000/svg" id="dumbbell">
    <path d="M472 88h-24V48c0-13.254-10.746-24-24-24h-16a23.821 23.821 0 0 0-8.64 1.672C396.335 10.75 383.226.02 368 0h-16c-17.672 0-32 14.328-32 32v48h-24a8 8 0 0 0-8 8h-96a8 8 0 0 0-8-8h-24V32c0-17.672-14.328-32-32-32h-16C96.773.02 83.664 10.75 80.64 25.672A23.821 23.821 0 0 0 72 24H56c-13.254 0-24 10.746-24 24v40H8a8 8 0 0 0-8 8v48a8 8 0 0 0 8 8h24v32c0 13.254 10.746 24 24 24h16a23.821 23.821 0 0 0 8.64-1.672C83.665 221.25 96.774 231.98 112 232h16c17.672 0 32-14.328 32-32v-40h24a8 8 0 0 0 8-8h96a8 8 0 0 0 8 8h24v40c0 17.672 14.328 32 32 32h16c15.227-.02 28.336-10.75 31.36-25.672A23.821 23.821 0 0 0 408 208h16c13.254 0 24-10.746 24-24v-32h24a8 8 0 0 0 8-8V96a8 8 0 0 0-8-8zm-252.527 48l20-32h21.136l-20 32zM16 136v-32h16v32zm56 56H56a8 8 0 0 1-8-8V48a8 8 0 0 1 8-8h16a8 8 0 0 1 8 8v136a8 8 0 0 1-8 8zm72 8c0 8.836-7.164 16-16 16h-16c-8.836 0-16-7.164-16-16V32c0-8.836 7.164-16 16-16h16c8.836 0 16 7.164 16 16zm16-56V96h16v48zm32-40h28.61l-20 32H192zm67.473 32l20-32H288v32zM304 144V96h16v48zm80 56c0 8.836-7.164 16-16 16h-16c-8.836 0-16-7.164-16-16V32c0-8.836 7.164-16 16-16h16c8.836 0 16 7.164 16 16zm48-16a8 8 0 0 1-8 8h-16a8 8 0 0 1-8-8V48a8 8 0 0 1 8-8h16a8 8 0 0 1 8 8zm32-48h-16v-32h16zm0 0"></path>
    <path d="M120 32a8 8 0 0 0-8 8v8a8 8 0 0 0 16 0v-8a8 8 0 0 0-8-8zm0 56a8 8 0 0 0-8 8v40a8 8 0 0 0 16 0V96a8 8 0 0 0-8-8zm240-56a8 8 0 0 0-8 8v8a8 8 0 0 0 16 0v-8a8 8 0 0 0-8-8zm0 56a8 8 0 0 0-8 8v40a8 8 0 0 0 16 0V96a8 8 0 0 0-8-8zm0 0"></path>
  </symbol>
  <symbol xmlns="http://www.w3.org/2000/svg" viewBox="0 0 512 512" id="exercise">
    <path d="M447.929 117.727c-4.293-6.572-13.195-7.529-18.766-2.484-22.59 20.452-24.27 21.849-30.17 27.755l-32.16-4.431-3.264 8.831a36.021 36.021 0 0 1 1.573 27.29l6.408.882a251.073 251.073 0 0 0-21.877 37.417 212.45 212.45 0 0 0 5.581 60.402 226.35 226.35 0 0 1 44.397-93.947l12.835 1.768c9.819 1.36 18.935-5.505 20.295-15.38.821-5.957-1.386-11.622-5.426-15.479l18.201-16.479c4.552-4.122 5.731-11.005 2.373-16.145zm-95.865-15.064c-6.429-2.381-13.562.909-15.938 7.335l-6.275 16.975a35.885 35.885 0 0 1 23.59 7.749L359.4 118.6c2.375-6.426-.909-13.562-7.336-15.937z"></path>
    <path d="M369.79 470.721c20.18-5.182 35.096-23.494 35.096-45.291a46.523 46.523 0 0 0-5.863-22.668 46.97 46.97 0 0 0-17.116-17.587l-30.822-78.791a226.483 226.483 0 0 1-14.162-107.891c-1.281.209.212.023-25.228 2.878a251.283 251.283 0 0 0 16.283 114.054l24.446 62.492-15.738-2.092-14.644-37.436-3.796 34.985-45.93-6.105c-3.413 5.495-7.955 10.017-14.021 13.427l7.677.371c7.447.36 13.691 6.185 14.055 13.632.426 8.723-6.759 15.553-15.069 15.133l-50.707-2.451c-7.938-.384-14.063-7.131-13.679-15.069.335-6.908 5.673-14.134 16.396-13.614-7.172-5.028-12.503-12.379-15.005-20.781l-25.212-3.351 12.442-39.078a20.84 20.84 0 0 0 .88-8.383l-4.25-42.801c-39.847-7.433-38.686-7.036-42.733-8.495l5.078 51.134-12.853 40.372c-40.851 2.645-73.171 36.596-73.171 78.115 0 22.908 9.84 43.516 25.521 57.834l-11.571 11.573c-3.517 3.517-4.167 9.154-1.188 13.137 3.713 4.963 10.785 5.337 15.004 1.119l14.27-14.27a77.936 77.936 0 0 0 36.265 8.909c11.673 0 204.623-29.823 204.623-29.823l34.605 35.132c3.845 3.903 10.129 3.954 14.036.106 3.904-3.845 3.952-10.129.106-14.035l-24.025-24.391zm-182.609-42.854c-1.206 23.775-20.525 43.094-44.3 44.299-27.767 1.407-50.576-21.402-49.169-49.169 1.205-23.776 20.523-43.094 44.299-44.3 27.767-1.408 50.576 21.402 49.17 49.17zM276.345 4.526c-21.323-11.089-47.407-1.002-55.722 21.548-6.856 18.595 1.331 39.766 18.915 48.909 21.323 11.088 47.404 1.002 55.72-21.547 6.858-18.595-1.328-39.766-18.913-48.91z"></path>
    <path d="M329.08 145.061l-61.898 6.948-37.539-44.723 37.726 26.582 45.346-5.088S246.03 99.522 205.797 81.728c-12.254-5.419-27.225 2.284-32.704 16.705L133.21 203.435c-5.437 14.312-.029 29.891 12.679 34.718 4.24 2.336.112 1.14 81.622 16.344l-9.738 89.99c-1.385 12.807 8.651 23.935 21.51 23.935 10.887 0 20.256-8.208 21.456-19.285L272.63 239.25c1.215-11.227-6.419-21.496-17.52-23.567l-34.287-6.395 8.572-20.716c-2.912-6.19-24.572-52.255-27.337-58.133l43.744 52.117c3.814 4.546 9.71 7 15.801 6.319l71.024-7.971c9.184-1.031 16.488-8.663 16.47-17.906-.02-10.929-9.457-19.123-20.017-17.937z"></path>
  </symbol>
  <symbol viewBox="0 0 480 480.025" xmlns="http://www.w3.org/2000/svg" id="fitness">
    <path d="M244.438 328.84a27.882 27.882 0 0 1-24.848 0 8.003 8.003 0 0 0-10.738 3.586 8.003 8.003 0 0 0 3.585 10.734 44.009 44.009 0 0 0 39.153 0 8.001 8.001 0 0 0 3.582-10.734 7.998 7.998 0 0 0-10.734-3.586zM48.012 216.8a8 8 0 0 0-16 0 52.762 52.762 0 0 0 11.504 32.802 36.693 36.693 0 0 1 5.687 35.613 8.004 8.004 0 0 0 4.754 10.133 7.996 7.996 0 0 0 10.23-4.532 52.743 52.743 0 0 0-8.175-51.23 36.654 36.654 0 0 1-8-22.785zm-2.152 95.735a8.004 8.004 0 0 0-10.337 4.594A52.14 52.14 0 0 0 32.012 336a8 8 0 0 0 16 0 36.49 36.49 0 0 1 2.402-13.129 8.005 8.005 0 0 0-4.555-10.336zM40.012 192a8 8 0 0 0 8-8v-16a8 8 0 0 0-16 0v16a8 8 0 0 0 8 8zm0 0"></path>
    <path d="M472.012 376h-16v-56a7.907 7.907 0 0 0-6.766-7.754l11.383-18.965c.46-.812.777-1.703.926-2.625 0-.12.113-.23.129-.36a7.595 7.595 0 0 0-.07-1.519 7.84 7.84 0 0 0-.083-1.601 7.996 7.996 0 0 0-3.648-4.918l-43.895-26.297-24.695-14.816a6.98 6.98 0 0 0-5.184-.954c-.293 0-.59.016-.879.047h-.02a8.007 8.007 0 0 0-4.91 3.657L337.423 312h-4.45a51.512 51.512 0 0 0-86.687-24.855l-2.289 2.289a27.07 27.07 0 0 1-9.297 6.054 68.905 68.905 0 0 1 3.817-27.71 7.839 7.839 0 0 0 1.304-3.204 68.41 68.41 0 0 1 8.442-15.039l14.152-18.87c2.648-3.536 1.934-8.552-1.602-11.2a8 8 0 0 0-11.199 1.597l-14.152 18.868c-.383.511-.695 1.07-1.063 1.597l-3.203-11.785a63.51 63.51 0 0 0-7.199-16.406V104c-.027-22.082-17.918-39.973-40-40h-47.984V48h8a8 8 0 0 0 8-8V24c0-13.254-10.746-24-24-24h-32c-13.254 0-24 10.746-24 24v16a8 8 0 0 0 8 8h8v16h-48c-22.078.027-39.973 17.918-40 40v112.398a52.363 52.363 0 0 0 11.496 32.739A36.974 36.974 0 0 1 19.53 272a37 37 0 0 1-8 22.824A52.362 52.362 0 0 0 .01 327.602V440c.028 22.082 17.923 39.973 40 40h145.06a23.802 23.802 0 0 0 2.476-.145 39.526 39.526 0 0 0 29-15.597l1.793-2.403a8.251 8.251 0 0 1 12.8 0l1.794 2.403a39.005 39.005 0 0 0 42.472 14.14 7.823 7.823 0 0 0 4.606 1.602h160c22.082-.027 39.972-17.918 40-40v-56a8 8 0 0 0-8-8zm-138.614 0a198.452 198.452 0 0 0 1.727-48h8.887v16h16v-16h16v32h16v-32h16v16h16v-16h16v48zm54.512-117.016l15.672 9.391 39.2 23.52-8.25 13.707-54.848-32.907zm-16.472 27.414L414.094 312h-58.016zm-152.696 10.266a26.999 26.999 0 0 1-12.496-6.61 36.19 36.19 0 0 1-1.05-28.964l16.648 6.652a85.182 85.182 0 0 0-3.102 28.922zm-3-62.71l4.328 15.847-19.37-7.754a48.12 48.12 0 0 1-26.735-26.734l-7.754-19.368 15.848 4.328a48.163 48.163 0 0 1 33.683 33.68zM88.012 24a8 8 0 0 1 8-8h32a8 8 0 0 1 8 8v8h-48zm16 24h16v16h-16zm-88 56c0-13.254 10.746-24 24-24h144c13.254 0 24 10.746 24 24v24h-192zm0 336V327.602a36.348 36.348 0 0 1 8-22.801A53.006 53.006 0 0 0 35.532 272a53.009 53.009 0 0 0-11.52-32.855 36.32 36.32 0 0 1-8-22.747V144h192v51.602a63.691 63.691 0 0 0-21.735-10.801l-31.351-8.555a8.005 8.005 0 0 0-8.086 2.395 8.01 8.01 0 0 0-1.453 8.304l13.715 34.278a64.257 64.257 0 0 0 31.359 33.672 52.44 52.44 0 0 0-3.711 21.136 51.712 51.712 0 0 0-71.29 40.32 197.72 197.72 0 0 0 33.872 141.84l3.488 4.993c.192.28.426.511.625.8H40.012c-13.246 0-23.992-10.734-24-23.984zm229.722 14.664l-1.793-2.398a23.999 23.999 0 0 0-38.402 0l-1.781 2.398A23.483 23.483 0 0 1 185.07 464a23.36 23.36 0 0 1-19.129-9.96l-3.496-4.993a181.785 181.785 0 0 1-31.136-130.399c2.582-17.543 17.593-30.57 35.328-30.648a35.46 35.46 0 0 1 25.246 10.465l2.02 2.015.07.063.199.2c16.89 16.862 44.246 16.862 61.137 0l2.289-2.286A35.459 35.459 0 0 1 282.844 288c17.738.078 32.758 13.105 35.336 30.656a181.724 181.724 0 0 1-13.504 98.946l-.047.109a183.19 183.19 0 0 1-17.602 31.379l-3.496 4.988a23.335 23.335 0 0 1-18.742 9.957 23.345 23.345 0 0 1-19.066-9.332zM296.012 464c.199-.273.433-.512.625-.8l3.496-4.993c1.383-1.992 2.55-4.086 3.863-6.117V464zm168-24c0 13.254-10.746 24-24 24h-120v-41.77A196.243 196.243 0 0 0 330.21 392h5.8v32h16v-32h16v16h16v-16h16v32h16v-32h16v16h16v-16h16zm0 0"></path>
    <path d="M360.012 208c57.437 0 104-46.563 104-104s-46.563-104-104-104-104 46.563-104 104c.066 57.41 46.59 103.934 104 104zm0-192c48.601 0 88 39.398 88 88s-39.399 88-88 88c-48.602 0-88-39.398-88-88 .058-48.578 39.422-87.941 88-88zm0 0"></path>
    <path d="M308.078 83l-14.824-6a71.282 71.282 0 0 0-4.68 18.008l15.871 1.984c.598-4.8 1.82-9.504 3.633-13.992zm24.934 87.762l6-14.825a56.25 56.25 0 0 1-33.239-37.93l-15.488 4a72.262 72.262 0 0 0 42.727 48.755zm69.878-20.617a8.003 8.003 0 1 0 13.164-4.723 8.003 8.003 0 0 0-2.921-7.567l-45.121-37.597V56a8 8 0 0 0-16 0v48a8.008 8.008 0 0 0 2.879 6.145zM280.012 240h16v16h-16zm0-32h16v16h-16zm32 32h16v16h-16zm120-40h16v16h-16zm0 32h16v16h-16zm32-64h16v16h-16zm0 32h16v16h-16zm0 32h16v16h-16zm-320-136h48v16h-48zm-32 0h16v16h-16zm0 0"></path>
  </symbol>
  <symbol viewBox="-40 0 480 480.001" xmlns="http://www.w3.org/2000/svg" id="proteins">
    <path d="M376 392H268.633l10.926-192H280c13.254 0 24-10.746 24-24v-32c0-13.254-10.746-24-24-24h-8V24c0-13.254-10.746-24-24-24h-32a24.003 24.003 0 0 0-22.527 16H72c-17.672 0-32 14.328-32 32v45.36A79.233 79.233 0 0 0 32.41 120H24c-13.254 0-24 10.746-24 24v32c0 13.254 10.746 24 24 24h.656l22.098 258.047c1.023 12.469 11.488 22.043 24 21.953H224c22.082-.027 39.973-17.918 40-40h112c13.254 0 24-10.746 24-24s-10.746-24-24-24zM192 40v8h-80c-2.672.004-5.34.137-8 .406V48a31.657 31.657 0 0 0-4.441-16H192zm16 8h48v32.2a79.996 79.996 0 0 0-48-30.598zm0-24a8 8 0 0 1 8-8h32a8 8 0 0 1 8 8v8h-48zM72 32c8.836 0 16 7.164 16 16v3.688a80.008 80.008 0 0 0-32 19.28V48c0-8.836 7.164-16 16-16zm40 32h80c32.238.043 59.43 24.02 63.504 56H48.496C52.57 88.02 79.762 64.043 112 64zM16 176v-32a8 8 0 0 1 8-8h256a8 8 0 0 1 8 8v32a8 8 0 0 1-8 8H24a8 8 0 0 1-8-8zm247.535 24l-1.824 32H104v-16H88v16H43.45l-2.747-32zM62.688 456.672L44.8 248H88v168h32v-16h-16v-32h32v-16h-32v-32h16v-16h-16v-32h32v-16h-32v-8h156.8l-7.745 136h-.797l-18.977-28.496a40 40 0 0 0-66.562 0l-19 28.496H144a8 8 0 0 0-8 8v48a39.604 39.604 0 0 0 8.207 24H70.719a8 8 0 0 1-8.031-7.328zM233.047 384h-66.094L180 364.375a24.002 24.002 0 0 1 39.938 0zM248 440c0 13.254-10.746 24-24 24h-48c-13.254 0-24-10.746-24-24v-40h96zm128-16H264v-16h112a8 8 0 0 1 0 16zm0 0"></path>
  </symbol>
  <symbol viewBox="-68 0 472 472.015" xmlns="http://www.w3.org/2000/svg" id="shower">
    <path d="M335.77 264c-.04-19.09-13.551-35.5-32.278-39.2a156.714 156.714 0 0 0-29.113-84.495l-12.106-16.938A8.007 8.007 0 0 0 255.77 120h-48V80h112a8 8 0 0 0 8-8V8a8 8 0 0 0-8-8h-136c-30.91.04-55.958 25.09-56 56v64h-48a8.003 8.003 0 0 0-6.504 3.352l-12.102 16.937a156.69 156.69 0 0 0-29.113 84.512C11.96 228.879-1.793 247.48.195 267.883 2.184 288.28 19.273 303.879 39.77 304h256c22.082-.027 39.976-17.918 40-40zm-192-208c.027-22.082 17.921-39.973 40-40h128v48h-112a8 8 0 0 0-8 8v48h-48zm-69.598 93.602L83.89 136h167.761l9.72 13.602A140.977 140.977 0 0 1 287.554 224H47.988a140.977 140.977 0 0 1 26.184-74.398zM295.77 288h-256c-13.254 0-24-10.746-24-24s10.746-24 24-24h256c13.257 0 24 10.746 24 24s-10.743 24-24 24zm-147.68 61.328l-15.262-25.45a8.33 8.33 0 0 0-13.723 0l-15.261 25.45c-6.5 10.828-4.2 24.774 5.43 32.945 9.628 8.172 23.757 8.172 33.386 0 9.63-8.171 11.93-22.117 5.43-32.945zm-16.695 21.434a9.804 9.804 0 0 1-12.192-1.07 9.803 9.803 0 0 1-1.64-12.133l8.402-14.016 8.406 14.059a9.783 9.783 0 0 1-2.976 13.16zm8.878 96.902c11.485-7.625 14.93-22.937 7.817-34.742l-15.262-25.442a8.322 8.322 0 0 0-13.723 0l-15.261 25.442c-6.23 10.344-4.446 23.629 4.297 31.965 8.738 8.336 22.093 9.492 32.132 2.777zm-22.71-26.504l8.402-14.015 8.406 14.015a9.8 9.8 0 0 1-2.059 12.52 9.798 9.798 0 0 1-12.683 0 9.8 9.8 0 0 1-2.059-12.52zm-87.719-57.09c10.039 6.703 23.386 5.547 32.125-2.785 8.738-8.332 10.531-21.61 4.312-31.957l-15.261-25.45a8.33 8.33 0 0 0-13.72 0l-15.265 25.45c-7.105 11.805-3.664 27.113 7.809 34.742zm5.926-26.468l8.41-14.016 8.39 14.016a9.806 9.806 0 1 1-14.75 12.535 9.806 9.806 0 0 1-2.05-12.535zm-5.926 110.062c10.039 6.703 23.386 5.547 32.125-2.785 8.738-8.332 10.531-21.61 4.312-31.957L51.02 407.48a8.317 8.317 0 0 0-13.72 0l-15.265 25.442c-7.105 11.805-3.664 27.113 7.809 34.742zm5.91-26.504l8.41-14.015 8.406 14.015a9.804 9.804 0 0 1-2.054 12.52 9.804 9.804 0 0 1-12.688 0 9.804 9.804 0 0 1-2.058-12.52zm277.754-91.832l-15.266-25.45a8.325 8.325 0 0 0-13.719 0l-15.265 25.45c-6.496 10.828-4.2 24.774 5.43 32.945 9.628 8.172 23.761 8.172 33.39 0 9.629-8.171 11.926-22.117 5.43-32.945zm-16.695 21.434a9.799 9.799 0 1 1-13.84-13.16l8.406-14.016 8.39 14.016a9.783 9.783 0 0 1-2.957 13.16zm-12.29 36.718l-15.265 25.442c-6.496 10.828-4.2 24.77 5.43 32.941s23.761 8.172 33.39 0 11.926-22.113 5.43-32.941l-15.266-25.442a8.317 8.317 0 0 0-13.719 0zm12.29 46.872a9.804 9.804 0 0 1-12.196-1.063c-3.316-3.16-4-8.2-1.644-12.129l8.406-14.015 8.39 14.015a9.77 9.77 0 0 1-2.957 13.192zM231.7 349.328l-15.266-25.45a8.33 8.33 0 0 0-13.719 0l-15.266 25.45c-6.496 10.828-4.199 24.774 5.43 32.945 9.633 8.172 23.762 8.172 33.39 0 9.63-8.171 11.926-22.117 5.43-32.945zm-16.727 21.434a9.81 9.81 0 0 1-12.196-1.07 9.803 9.803 0 0 1-1.636-12.133l8.406-14.016 8.398 14.016a9.786 9.786 0 0 1-2.972 13.203zm-12.258 36.718l-15.266 25.442c-6.496 10.828-4.199 24.77 5.43 32.941 9.633 8.172 23.762 8.172 33.39 0 9.63-8.172 11.926-22.113 5.43-32.941l-15.265-25.442a8.317 8.317 0 0 0-13.72 0zm12.258 46.872a9.799 9.799 0 0 1-12.184-1.075 9.797 9.797 0 0 1-1.648-12.117l8.406-14.015 8.398 14.015a9.764 9.764 0 0 1-2.972 13.192zm0 0"></path>
  </symbol>
  <symbol viewBox="0 -32 480.003 480" xmlns="http://www.w3.org/2000/svg" id="treadmill">
    <path d="M472 320.004h-4.488l-56.535-176H448a7.998 7.998 0 0 0 7.2-11.574l-14.68-29.364 18.464-73.84c3.149-12.601-4.511-25.37-17.117-28.523-12.601-3.148-25.37 4.512-28.523 17.117l-19.582 78.184H304a7.998 7.998 0 0 0-7.2 11.574l10.255 20.426h-37.11c-10.77-.008-19.953 7.8-21.675 18.43-1.727 10.632 4.52 20.941 14.738 24.34l62.465 20.796c4.195 1.399 8.73-.875 10.129-5.07a8.012 8.012 0 0 0-5.075-10.129l-62.457-20.8a5.941 5.941 0 0 1-3.941-6.575 5.938 5.938 0 0 1 5.816-4.992h76.223l56.535 176H392a8.001 8.001 0 0 0-5.656 2.344l-16 16a8.001 8.001 0 0 0-2.344 5.656v8H32c-17.672 0-32 14.328-32 32s14.328 32 32 32h416a7.997 7.997 0 0 0 7.2-4.426l24-48a7.847 7.847 0 0 0 .8-3.574v-32a8 8 0 0 0-8-8zM428.8 21.699a7.526 7.526 0 0 1 9.067-5.254 7.523 7.523 0 0 1 5.531 8.903l-17.644 70.656h-15.508zM324.946 128.004l-8-16h110.11l8 16zm38.024 16h31.199l56.535 176h-31.2zm32.344 192H464v16h-80v-4.688zm-59.313 48v16H59.55a31.783 31.783 0 0 0 3.313-8H80v-16H62.863a31.783 31.783 0 0 0-3.312-8H352l-12.8 9.601a7.998 7.998 0 0 0-3.2 6.399zm-320 0c0-8.836 7.164-16 16-16s16 7.164 16 16-7.164 16-16 16-16-7.164-16-16zm336 16v-12l26.664-20h80.39l-16 32zm0 0"></path>
    <path d="M72 320.004h16v16H72zm32 0h32v16h-32zm48 0h56v16h-56zm104 0h16v16h-16zm32 0h16v16h-16zm-192 56h16v16H96zm0 0"></path>
  </symbol>
  <symbol viewBox="0 0 511 512" xmlns="http://www.w3.org/2000/svg" id="warrior">
    <path d="M173.3 447.93a10.07 10.07 0 0 0 7.067-2.93 10.083 10.083 0 0 0 2.934-7.07c0-2.63-1.07-5.211-2.934-7.07a10.07 10.07 0 0 0-7.066-2.93c-2.633 0-5.211 1.07-7.07 2.93s-2.93 4.44-2.93 7.07a10.06 10.06 0 0 0 2.93 7.07 10.08 10.08 0 0 0 7.07 2.93zm0 0"></path>
    <path d="M502.469 492h-48.106l-18.277-32.672v-89.133c0-21.02-13.492-39.332-33.57-45.562L325.8 300.82v-81.226a37.54 37.54 0 0 0-6.14-20.621c21.769-7.508 37.456-28.188 37.456-52.473 0-28.934-22.262-52.758-50.554-55.27V50.062C306.563 22.457 284.105 0 256.5 0c-5.523 0-10 4.477-10 10v79.816c-.047 0-.09-.007-.137-.007-8.699-.176-16.925 3.078-23.183 9.113-6.258 6.035-9.793 14.148-9.95 22.84-.328 17.945 14.008 32.808 31.954 33.136l.582.012c-1.739 16.356-6.582 32.52-14.297 47.395a37.716 37.716 0 0 0-4.207 17.289v86.008l-24.09 43.406-129.063 81.14c-12.277 7.72-19.609 20.985-19.609 35.489V492h-44c-5.523 0-10 4.477-10 10s4.477 10 10 10h491.973c5.52 0 10-4.477 10-10s-4.48-10-10.004-10zM337.117 146.5c0 17.898-13.312 32.742-30.555 35.156v-70.312c17.243 2.414 30.555 17.258 30.555 35.156zM266.5 21.71c11.676 4.13 20.063 15.278 20.063 28.352V193.29c0 4.36 2.82 8.215 6.976 9.531 7.332 2.328 12.262 9.07 12.262 16.774v78.597h-58.535v-78.597c0-2.856.66-5.574 1.957-8.082 11.304-21.793 17.277-46.032 17.277-70.102zm-29.762 109.352a12.461 12.461 0 0 1-3.511-8.937 12.462 12.462 0 0 1 3.835-8.809 12.476 12.476 0 0 1 8.704-3.515c.14 0 .28.004.422.004.105 0 .207-.012.312-.016v25.129l-.953-.016a12.482 12.482 0 0 1-8.809-3.84zm-84.965 317.446c-2.433-4.957-8.425-7.004-13.386-4.567l-44.305 21.762a10.01 10.01 0 0 0-1.855 1.184L74.5 481.133v-15.496c0-7.582 3.832-14.52 10.254-18.559l131.234-82.508a10.005 10.005 0 0 0 3.422-3.61l23.738-42.769h53.97l-28.888 43.36a123.473 123.473 0 0 1-48.27 42.316l-20.702 10.172c-4.957 2.434-7 8.426-4.567 13.383 2.438 4.957 8.43 7.004 13.387 4.566l20.7-10.168a143.514 143.514 0 0 0 56.097-49.183l7.852-11.785 81.773 30.12v92.442c0 2.992.46 5.875 1.316 8.586H92.902l10.993-8.836 43.312-21.273c4.957-2.434 7-8.426 4.566-13.383zM403.086 492c-4.734 0-8.586-3.852-8.586-8.586V384a10 10 0 0 0-6.543-9.383l-83.824-30.879 10.879-16.332 4.965-7.449 76.613 23.773c11.66 3.622 19.496 14.254 19.496 26.465v91.742c0 1.711.437 3.391 1.27 4.883l14.09 25.18zm0 0"></path>
  </symbol>
  <symbol viewBox="-16 0 480 480.003" xmlns="http://www.w3.org/2000/svg" id="weight-scale">
    <path d="M408 40.004H301.816a95.689 95.689 0 0 0-155.633 0H40c-22.078.023-39.973 17.918-40 40v360c.027 22.078 17.922 39.973 40 40h368c22.082-.027 39.977-17.922 40-40v-360c-.023-22.082-17.918-39.977-40-40zm-392 96h416v256c0 13.254-10.742 24-24 24H40c-13.254 0-24-10.746-24-24zm208-120c41.066.05 75.441 31.144 79.602 72h-32.32a47.995 47.995 0 0 0-16.88-29.106l8.551-14.894a8.003 8.003 0 0 0-2.992-10.914 7.998 7.998 0 0 0-10.91 2.992l-8.54 14.906a47.787 47.787 0 0 0-40.616 3.473 47.789 47.789 0 0 0-23.172 33.543h-32.32c4.156-40.856 38.535-71.95 79.597-72zm30.992 72h-61.984c3.637-14.145 16.39-24.031 30.992-24.031 14.605 0 27.355 9.886 30.992 24.03zM40 56.004h96.84a95.396 95.396 0 0 0-8.84 40 8 8 0 0 0 8 8h176a8 8 0 0 0 8-8c0-13.817-3-27.465-8.797-40H408c13.258 0 24 10.742 24 24v40H16v-40c0-13.258 10.746-24 24-24zm368 408H40c-13.254 0-24-10.746-24-24v-16.211a39.583 39.583 0 0 0 24 8.21h368a39.583 39.583 0 0 0 24-8.21v16.21c0 13.255-10.742 24-24 24zm0 0"></path>
    <path d="M40 408.004h24v-16H48v-16H32v24a8 8 0 0 0 8 8zm8-232h16v-16H40a8 8 0 0 0-8 8v24h16zm352 16h16v-24a8 8 0 0 0-8-8h-24v16h16zm-184-40h16v16h-16zm0 32h16v16h-16zm0 32h16v16h-16zm0 32h16v16h-16zm0 32h16v16h-16zm0 32h16v16h-16zm0 32h16v16h-16zm0 32h16v16h-16zm168 24h24a8 8 0 0 0 8-8v-24h-16v16h-16a8 8 0 0 0 0 16zm-268-16c24.29-.027 43.977-19.711 44-44v-34.707a147.532 147.532 0 0 1 7.594-46.766l4.207-12.617a81.934 81.934 0 0 0 4.199-25.91c0-28.719-23.281-52-52-52s-52 23.281-52 52v120c.027 24.289 19.71 43.973 44 44zm-28-164c0-19.883 16.117-36 36-36s36 16.117 36 36a65.667 65.667 0 0 1-3.383 20.848l-4.207 12.62a163.776 163.776 0 0 0-8.41 51.825v34.707c0 15.46-12.535 28-28 28-15.46 0-28-12.54-28-28zm192.41 38.527a147.528 147.528 0 0 1 7.59 46.766v34.707c0 24.3 19.7 44 44 44s44-19.7 44-44v-120c0-28.719-23.281-52-52-52s-52 23.281-52 52a81.938 81.938 0 0 0 4.203 25.91zM324 184.004c19.875.02 35.98 16.125 36 36v120c0 15.46-12.535 28-28 28-15.46 0-28-12.54-28-28v-34.707a163.772 163.772 0 0 0-8.406-51.824l-4.207-12.614A65.736 65.736 0 0 1 288 220.004c.023-19.875 16.129-35.98 36-36zm0 0"></path>
  </symbol>
</svg>