<svg width="0" height="0" class="hidden">
  <symbol xmlns="http://www.w3.org/2000/svg" viewBox="0 0 410.155 410.155" id="twitter">
    <path d="M403.632 74.18a162.414 162.414 0 0 1-28.28 9.537 88.177 88.177 0 0 0 23.275-37.067c1.295-4.051-3.105-7.554-6.763-5.385a163.188 163.188 0 0 1-43.235 17.862 11.02 11.02 0 0 1-2.702.336c-2.766 0-5.455-1.027-7.57-2.891-16.156-14.239-36.935-22.081-58.508-22.081-9.335 0-18.76 1.455-28.014 4.325-28.672 8.893-50.795 32.544-57.736 61.724-2.604 10.945-3.309 21.9-2.097 32.56a3.166 3.166 0 0 1-.797 2.481 3.278 3.278 0 0 1-2.753 1.091c-62.762-5.831-119.358-36.068-159.363-85.14-2.04-2.503-5.952-2.196-7.578.593-7.834 13.44-11.974 28.812-11.974 44.454 0 23.972 9.631 46.563 26.36 63.032a79.24 79.24 0 0 1-20.169-7.808c-3.06-1.7-6.825.485-6.868 3.985-.438 35.612 20.412 67.3 51.646 81.569a79.567 79.567 0 0 1-16.786-1.399c-3.446-.658-6.341 2.611-5.271 5.952 10.138 31.651 37.39 54.981 70.002 60.278-27.066 18.169-58.585 27.753-91.39 27.753l-10.227-.006c-3.151 0-5.816 2.054-6.619 5.106-.791 3.006.666 6.177 3.353 7.74 36.966 21.513 79.131 32.883 121.955 32.883 37.485 0 72.549-7.439 104.219-22.109 29.033-13.449 54.689-32.674 76.255-57.141 20.09-22.792 35.8-49.103 46.692-78.201 10.383-27.737 15.871-57.333 15.871-85.589v-1.346c-.001-4.537 2.051-8.806 5.631-11.712a174.776 174.776 0 0 0 35.16-38.591c2.573-3.849-1.485-8.673-5.719-6.795z"
      fill="#76a9ea"></path>
  </symbol>
  <symbol xmlns="http://www.w3.org/2000/svg" viewBox="0 0 461.001 461.001" id="youtube">
    <path d="M365.257 67.393H95.744C42.866 67.393 0 110.259 0 163.137v134.728c0 52.878 42.866 95.744 95.744 95.744h269.513c52.878 0 95.744-42.866 95.744-95.744V163.137c0-52.878-42.866-95.744-95.744-95.744zm-64.751 169.663l-126.06 60.123c-3.359 1.602-7.239-.847-7.239-4.568V168.607c0-3.774 3.982-6.22 7.348-4.514l126.06 63.881c3.748 1.899 3.683 7.274-.109 9.082z"
      fill="#f61c0d"></path>
  </symbol>
  <symbol xmlns="http://www.w3.org/2000/svg" viewBox="0 0 551.034 551.034" id="instagram">
    <linearGradient id="a" gradientUnits="userSpaceOnUse" x1="275.517" y1="4.57" x2="275.517" y2="549.72" gradientTransform="matrix(1 0 0 -1 0 554)">
      <stop offset="0" stop-color="#e09b3d"></stop>
      <stop offset=".3" stop-color="#c74c4d"></stop>
      <stop offset=".6" stop-color="#c21975"></stop>
      <stop offset="1" stop-color="#7024c4"></stop>
    </linearGradient>
    <path d="M386.878 0H164.156C73.64 0 0 73.64 0 164.156v222.722c0 90.516 73.64 164.156 164.156 164.156h222.722c90.516 0 164.156-73.64 164.156-164.156V164.156C551.033 73.64 477.393 0 386.878 0zM495.6 386.878c0 60.045-48.677 108.722-108.722 108.722H164.156c-60.045 0-108.722-48.677-108.722-108.722V164.156c0-60.046 48.677-108.722 108.722-108.722h222.722c60.045 0 108.722 48.676 108.722 108.722v222.722z"
      fill="url(#a)"></path>
    <linearGradient id="b" gradientUnits="userSpaceOnUse" x1="275.517" y1="4.57" x2="275.517" y2="549.72" gradientTransform="matrix(1 0 0 -1 0 554)">
      <stop offset="0" stop-color="#e09b3d"></stop>
      <stop offset=".3" stop-color="#c74c4d"></stop>
      <stop offset=".6" stop-color="#c21975"></stop>
      <stop offset="1" stop-color="#7024c4"></stop>
    </linearGradient>
    <path d="M275.517 133C196.933 133 133 196.933 133 275.516s63.933 142.517 142.517 142.517S418.034 354.1 418.034 275.516 354.101 133 275.517 133zm0 229.6c-48.095 0-87.083-38.988-87.083-87.083s38.989-87.083 87.083-87.083c48.095 0 87.083 38.988 87.083 87.083 0 48.094-38.989 87.083-87.083 87.083z"
      fill="url(#b)"></path>
    <linearGradient id="c" gradientUnits="userSpaceOnUse" x1="418.31" y1="4.57" x2="418.31" y2="549.72" gradientTransform="matrix(1 0 0 -1 0 554)">
      <stop offset="0" stop-color="#e09b3d"></stop>
      <stop offset=".3" stop-color="#c74c4d"></stop>
      <stop offset=".6" stop-color="#c21975"></stop>
      <stop offset="1" stop-color="#7024c4"></stop>
    </linearGradient>
    <circle cx="418.31" cy="134.07" r="34.15" fill="url(#c)"></circle>
  </symbol>
    <symbol xmlns="http://www.w3.org/2000/svg" viewBox="0 0 512 512" id="instagram(3)">
    <path d="M373.659 0H138.341C62.06 0 0 62.06 0 138.341v235.318C0 449.94 62.06 512 138.341 512h235.318C449.94 512 512 449.94 512 373.659V138.341C512 62.06 449.94 0 373.659 0zm96.977 373.659c0 53.473-43.503 96.977-96.977 96.977H138.341c-53.473 0-96.977-43.503-96.977-96.977V138.341c0-53.473 43.503-96.977 96.977-96.977h235.318c53.473 0 96.977 43.503 96.977 96.977v235.318z"></path>
    <path d="M370.586 238.141c-3.64-24.547-14.839-46.795-32.386-64.342-17.547-17.546-39.795-28.746-64.341-32.385a114.73 114.73 0 0 0-33.682 0c-30.336 4.499-57.103 20.541-75.372 45.172-18.269 24.631-25.854 54.903-21.355 85.237 4.499 30.335 20.541 57.102 45.172 75.372 19.996 14.831 43.706 22.619 68.153 22.619 5.667 0 11.375-.418 17.083-1.265 30.336-4.499 57.103-20.541 75.372-45.172 18.27-24.63 25.855-54.901 21.356-85.236zm-102.795 89.491c-19.405 2.882-38.77-1.973-54.527-13.66-15.757-11.687-26.019-28.811-28.896-48.216-2.878-19.405 1.973-38.77 13.66-54.527 11.688-15.757 28.811-26.019 48.217-28.897a73.42 73.42 0 0 1 21.545.001c32.231 4.779 57.098 29.645 61.878 61.877 5.94 40.058-21.817 77.482-61.877 83.422zm132.258-215.681a20.83 20.83 0 0 0-14.625-6.058 20.826 20.826 0 0 0-14.625 6.058 20.814 20.814 0 0 0-6.058 14.625 20.814 20.814 0 0 0 6.058 14.625 20.83 20.83 0 0 0 14.625 6.058 20.826 20.826 0 0 0 14.625-6.058 20.83 20.83 0 0 0 6.058-14.625 20.826 20.826 0 0 0-6.058-14.625z"></path>
  </symbol>
  <symbol xmlns="http://www.w3.org/2000/svg" viewBox="0 0 408.788 408.788" id="facebook">
    <path d="M353.701 0H55.087C24.665 0 .002 24.662.002 55.085v298.616c0 30.423 24.662 55.085 55.085 55.085h147.275l.251-146.078h-37.951a8.954 8.954 0 0 1-8.954-8.92l-.182-47.087a8.955 8.955 0 0 1 8.955-8.989h37.882v-45.498c0-52.8 32.247-81.55 79.348-81.55h38.65a8.955 8.955 0 0 1 8.955 8.955v39.704a8.955 8.955 0 0 1-8.95 8.955l-23.719.011c-25.615 0-30.575 12.172-30.575 30.035v39.389h56.285c5.363 0 9.524 4.683 8.892 10.009l-5.581 47.087a8.955 8.955 0 0 1-8.892 7.901h-50.453l-.251 146.078h87.631c30.422 0 55.084-24.662 55.084-55.084V55.085C408.786 24.662 384.124 0 353.701 0z"
      fill="#475993"></path>
  </symbol>
      <symbol xmlns="http://www.w3.org/2000/svg" viewBox="0 0 551.034 551.034" id="instagram(2)">
    <linearGradient id="a" gradientUnits="userSpaceOnUse" x1="275.517" y1="4.57" x2="275.517" y2="549.72" gradientTransform="matrix(1 0 0 -1 0 554)">
      <stop offset="0" stop-color="#e09b3d"></stop>
      <stop offset=".3" stop-color="#c74c4d"></stop>
      <stop offset=".6" stop-color="#c21975"></stop>
      <stop offset="1" stop-color="#7024c4"></stop>
    </linearGradient>
    <path d="M386.878 0H164.156C73.64 0 0 73.64 0 164.156v222.722c0 90.516 73.64 164.156 164.156 164.156h222.722c90.516 0 164.156-73.64 164.156-164.156V164.156C551.033 73.64 477.393 0 386.878 0zM495.6 386.878c0 60.045-48.677 108.722-108.722 108.722H164.156c-60.045 0-108.722-48.677-108.722-108.722V164.156c0-60.046 48.677-108.722 108.722-108.722h222.722c60.045 0 108.722 48.676 108.722 108.722v222.722z"
      fill="url(#a)"></path>
    <linearGradient id="b" gradientUnits="userSpaceOnUse" x1="275.517" y1="4.57" x2="275.517" y2="549.72" gradientTransform="matrix(1 0 0 -1 0 554)">
      <stop offset="0" stop-color="#e09b3d"></stop>
      <stop offset=".3" stop-color="#c74c4d"></stop>
      <stop offset=".6" stop-color="#c21975"></stop>
      <stop offset="1" stop-color="#7024c4"></stop>
    </linearGradient>
    <path d="M275.517 133C196.933 133 133 196.933 133 275.516s63.933 142.517 142.517 142.517S418.034 354.1 418.034 275.516 354.101 133 275.517 133zm0 229.6c-48.095 0-87.083-38.988-87.083-87.083s38.989-87.083 87.083-87.083c48.095 0 87.083 38.988 87.083 87.083 0 48.094-38.989 87.083-87.083 87.083z"
      fill="url(#b)"></path>
    <linearGradient id="c" gradientUnits="userSpaceOnUse" x1="418.31" y1="4.57" x2="418.31" y2="549.72" gradientTransform="matrix(1 0 0 -1 0 554)">
      <stop offset="0" stop-color="#e09b3d"></stop>
      <stop offset=".3" stop-color="#c74c4d"></stop>
      <stop offset=".6" stop-color="#c21975"></stop>
      <stop offset="1" stop-color="#7024c4"></stop>
    </linearGradient>
    <circle cx="418.31" cy="134.07" r="34.15" fill="url(#c)"></circle>
  </symbol>
</svg>